<svg xmlns="http://www.w3.org/2000/svg" viewBox="0 0 720 295" width="720" height="295" direction="rtl"><rect width="720" height="295" fill="#ffffff"/><defs><marker id="ah" markerWidth="10" markerHeight="10" refX="8" refY="3" orient="auto"><path d="M0,0 L8,3 L0,6 Z" fill="#555"/></marker></defs><text x="360" y="32" font-family='Heebo, Arial, sans-serif' font-size="21" fill="#1c1d1f" text-anchor="middle" font-weight="700">זיכרון RAM — מערך תאים עם כתובות</text><rect x="90" y="70" width="82" height="42" rx="5" fill="#e8f0ff" stroke="#3d7bff" stroke-width="1.5"/><text x="131" y="97" font-family='Heebo, Arial, sans-serif' font-size="12" fill="#3d7bff" text-anchor="middle" font-weight="400">0x00</text><rect x="180" y="70" width="82" height="42" rx="5" fill="#e8f0ff" stroke="#3d7bff" stroke-width="1.5"/><text x="221" y="97" font-family='Heebo, Arial, sans-serif' font-size="12" fill="#3d7bff" text-anchor="middle" font-weight="400">0x01</text><rect x="270" y="70" width="82" height="42" rx="5" fill="#e8f0ff" stroke="#3d7bff" stroke-width="1.5"/><text x="311" y="97" font-family='Heebo, Arial, sans-serif' font-size="12" fill="#3d7bff" text-anchor="middle" font-weight="400">0x02</text><rect x="360" y="70" width="82" height="42" rx="5" fill="#e8f0ff" stroke="#3d7bff" stroke-width="1.5"/><text x="401" y="97" font-family='Heebo, Arial, sans-serif' font-size="12" fill="#3d7bff" text-anchor="middle" font-weight="400">0x03</text><rect x="450" y="70" width="82" height="42" rx="5" fill="#e8f0ff" stroke="#3d7bff" stroke-width="1.5"/><text x="491" y="97" font-family='Heebo, Arial, sans-serif' font-size="12" fill="#3d7bff" text-anchor="middle" font-weight="400">0x04</text><rect x="540" y="70" width="82" height="42" rx="5" fill="#e8f0ff" stroke="#3d7bff" stroke-width="1.5"/><text x="581" y="97" font-family='Heebo, Arial, sans-serif' font-size="12" fill="#3d7bff" text-anchor="middle" font-weight="400">0x05</text><rect x="90" y="120" width="82" height="42" rx="5" fill="#e8f0ff" stroke="#3d7bff" stroke-width="1.5"/><text x="131" y="147" font-family='Heebo, Arial, sans-serif' font-size="12" fill="#3d7bff" text-anchor="middle" font-weight="400">0x06</text><rect x="180" y="120" width="82" height="42" rx="5" fill="#e8f0ff" stroke="#3d7bff" stroke-width="1.5"/><text x="221" y="147" font-family='Heebo, Arial, sans-serif' font-size="12" fill="#3d7bff" text-anchor="middle" font-weight="400">0x07</text><rect x="270" y="120" width="82" height="42" rx="5" fill="#e8f0ff" stroke="#3d7bff" stroke-width="1.5"/><text x="311" y="147" font-family='Heebo, Arial, sans-serif' font-size="12" fill="#3d7bff" text-anchor="middle" font-weight="400">0x08</text><rect x="360" y="120" width="82" height="42" rx="5" fill="#e8f0ff" stroke="#3d7bff" stroke-width="1.5"/><text x="401" y="147" font-family='Heebo, Arial, sans-serif' font-size="12" fill="#3d7bff" text-anchor="middle" font-weight="400">0x09</text><rect x="450" y="120" width="82" height="42" rx="5" fill="#e8f0ff" stroke="#3d7bff" stroke-width="1.5"/><text x="491" y="147" font-family='Heebo, Arial, sans-serif' font-size="12" fill="#3d7bff" text-anchor="middle" font-weight="400">0x0A</text><rect x="540" y="120" width="82" height="42" rx="5" fill="#e8f0ff" stroke="#3d7bff" stroke-width="1.5"/><text x="581" y="147" font-family='Heebo, Arial, sans-serif' font-size="12" fill="#3d7bff" text-anchor="middle" font-weight="400">0x0B</text><rect x="90" y="170" width="82" height="42" rx="5" fill="#e8f0ff" stroke="#3d7bff" stroke-width="1.5"/><text x="131" y="197" font-family='Heebo, Arial, sans-serif' font-size="12" fill="#3d7bff" text-anchor="middle" font-weight="400">0x0C</text><rect x="180" y="170" width="82" height="42" rx="5" fill="#e8f0ff" stroke="#3d7bff" stroke-width="1.5"/><text x="221" y="197" font-family='Heebo, Arial, sans-serif' font-size="12" fill="#3d7bff" text-anchor="middle" font-weight="400">0x0D</text><rect x="270" y="170" width="82" height="42" rx="5" fill="#e8f0ff" stroke="#3d7bff" stroke-width="1.5"/><text x="311" y="197" font-family='Heebo, Arial, sans-serif' font-size="12" fill="#3d7bff" text-anchor="middle" font-weight="400">0x0E</text><rect x="360" y="170" width="82" height="42" rx="5" fill="#e8f0ff" stroke="#3d7bff" stroke-width="1.5"/><text x="401" y="197" font-family='Heebo, Arial, sans-serif' font-size="12" fill="#3d7bff" text-anchor="middle" font-weight="400">0x0F</text><rect x="450" y="170" width="82" height="42" rx="5" fill="#e8f0ff" stroke="#3d7bff" stroke-width="1.5"/><text x="491" y="197" font-family='Heebo, Arial, sans-serif' font-size="12" fill="#3d7bff" text-anchor="middle" font-weight="400">0x10</text><rect x="540" y="170" width="82" height="42" rx="5" fill="#e8f0ff" stroke="#3d7bff" stroke-width="1.5"/><text x="581" y="197" font-family='Heebo, Arial, sans-serif' font-size="12" fill="#3d7bff" text-anchor="middle" font-weight="400">0x11</text><text x="360" y="250" font-family='Heebo, Arial, sans-serif' font-size="14" fill="#555" text-anchor="middle" font-weight="400">גישה אקראית: כל תא נגיש בזמן זהה לפי כתובתו</text><text x="360" y="275" font-family='Heebo, Arial, sans-serif' font-size="13" fill="#555" text-anchor="middle" font-weight="400">DRAM = זול וצפוף (ראשי) | SRAM = מהיר ויקר (מטמון)</text></svg>