<svg xmlns="http://www.w3.org/2000/svg" viewBox="0 0 720 230" width="720" height="230" direction="rtl">
<rect width="720" height="230" fill="#ffffff"/><defs><marker id="ah" markerWidth="10" markerHeight="10" refX="8" refY="3" orient="auto"><path d="M0,0 L8,3 L0,6 Z" fill="#555"/></marker></defs><text x="360" y="34" font-family='Heebo, Arial, sans-serif' font-size="22" fill="#1c1d1f" text-anchor="middle" font-weight="700">מאזן אנרגיה במנוע בעירה פנימית</text><rect x="472.2" y="90" width="217.8" height="60" fill="#a435f0"/><text x="581.1" y="126" font-family='Heebo, Arial, sans-serif' font-size="16" fill="#fff" text-anchor="middle" font-weight="700">33%</text><rect x="274.2" y="90" width="198" height="60" fill="#ff8a3d"/><text x="373.2" y="126" font-family='Heebo, Arial, sans-serif' font-size="16" fill="#fff" text-anchor="middle" font-weight="700">30%</text><rect x="76.19999999999999" y="90" width="198" height="60" fill="#3d7bff"/><text x="175.2" y="126" font-family='Heebo, Arial, sans-serif' font-size="16" fill="#fff" text-anchor="middle" font-weight="700">30%</text><rect x="29.999999999999986" y="90" width="46.2" height="60" fill="#9aa0a6"/><text x="53.09999999999999" y="126" font-family='Heebo, Arial, sans-serif' font-size="16" fill="#fff" text-anchor="middle" font-weight="700">7%</text><rect x="674" y="178" width="14" height="14" fill="#a435f0"/><text x="666" y="190" font-family='Heebo, Arial, sans-serif' font-size="14" fill="#1c1d1f" text-anchor="end" font-weight="400">עבודה מועילה</text><rect x="509" y="178" width="14" height="14" fill="#ff8a3d"/><text x="501" y="190" font-family='Heebo, Arial, sans-serif' font-size="14" fill="#1c1d1f" text-anchor="end" font-weight="400">חום בפליטה</text><rect x="344" y="178" width="14" height="14" fill="#3d7bff"/><text x="336" y="190" font-family='Heebo, Arial, sans-serif' font-size="14" fill="#1c1d1f" text-anchor="end" font-weight="400">קירור</text><rect x="179" y="178" width="14" height="14" fill="#9aa0a6"/><text x="171" y="190" font-family='Heebo, Arial, sans-serif' font-size="14" fill="#1c1d1f" text-anchor="end" font-weight="400">חיכוך</text></svg>