<svg xmlns="http://www.w3.org/2000/svg" viewBox="0 0 720 210" width="720" height="210" direction="rtl">
<rect width="720" height="210" fill="#ffffff"/><defs><marker id="ah" markerWidth="10" markerHeight="10" refX="8" refY="3" orient="auto"><path d="M0,0 L8,3 L0,6 Z" fill="#555"/></marker></defs><text x="360" y="34" font-family='Heebo, Arial, sans-serif' font-size="22" fill="#1c1d1f" text-anchor="middle" font-weight="700">מחזור 4 פעימות (מחזור אוטו)</text><rect x="538.5" y="80" width="151.5" height="90" rx="10" fill="#f3e8ff" stroke="#a435f0" stroke-width="2"/><text x="614.25" y="121" font-family='Heebo, Arial, sans-serif' font-size="15" fill="#1c1d1f" text-anchor="middle" font-weight="600">יניקה</text><text x="614.25" y="141" font-family='Heebo, Arial, sans-serif' font-size="15" fill="#1c1d1f" text-anchor="middle" font-weight="600">Intake</text><line x1="538.5" y1="125" x2="520.5" y2="125" stroke="#555" stroke-width="2.5" marker-end="url(#ah)"/><rect x="369" y="80" width="151.5" height="90" rx="10" fill="#e8f0ff" stroke="#a435f0" stroke-width="2"/><text x="444.75" y="121" font-family='Heebo, Arial, sans-serif' font-size="15" fill="#1c1d1f" text-anchor="middle" font-weight="600">דחיסה</text><text x="444.75" y="141" font-family='Heebo, Arial, sans-serif' font-size="15" fill="#1c1d1f" text-anchor="middle" font-weight="600">Compression</text><line x1="369" y1="125" x2="351" y2="125" stroke="#555" stroke-width="2.5" marker-end="url(#ah)"/><rect x="199.5" y="80" width="151.5" height="90" rx="10" fill="#fff3e0" stroke="#a435f0" stroke-width="2"/><text x="275.25" y="121" font-family='Heebo, Arial, sans-serif' font-size="15" fill="#1c1d1f" text-anchor="middle" font-weight="600">הספק</text><text x="275.25" y="141" font-family='Heebo, Arial, sans-serif' font-size="15" fill="#1c1d1f" text-anchor="middle" font-weight="600">Power</text><line x1="199.5" y1="125" x2="181.5" y2="125" stroke="#555" stroke-width="2.5" marker-end="url(#ah)"/><rect x="30" y="80" width="151.5" height="90" rx="10" fill="#e8f7ec" stroke="#a435f0" stroke-width="2"/><text x="105.75" y="121" font-family='Heebo, Arial, sans-serif' font-size="15" fill="#1c1d1f" text-anchor="middle" font-weight="600">פליטה</text><text x="105.75" y="141" font-family='Heebo, Arial, sans-serif' font-size="15" fill="#1c1d1f" text-anchor="middle" font-weight="600">Exhaust</text></svg>