<svg xmlns="http://www.w3.org/2000/svg" viewBox="0 0 720 280" width="720" height="280" direction="rtl">
<rect width="720" height="280" fill="#ffffff"/><defs><marker id="ah" markerWidth="10" markerHeight="10" refX="8" refY="3" orient="auto"><path d="M0,0 L8,3 L0,6 Z" fill="#555"/></marker></defs><text x="360" y="34" font-family='Heebo, Arial, sans-serif' font-size="22" fill="#1c1d1f" text-anchor="middle" font-weight="700">טורבינה — להבים בגזים חמים בלחץ גבוה</text><circle cx="360" cy="140" r="30" fill="#a435f0"/><line x1="392" y1="140" x2="455" y2="140" stroke="#7a2bbf" stroke-width="9" stroke-linecap="round"/><line x1="387.71281292110206" y1="156" x2="442.2724133595217" y2="187.5" stroke="#7a2bbf" stroke-width="9" stroke-linecap="round"/><line x1="376" y1="167.71281292110203" x2="407.5" y2="222.27241335952166" stroke="#7a2bbf" stroke-width="9" stroke-linecap="round"/><line x1="360" y1="172" x2="360" y2="235" stroke="#7a2bbf" stroke-width="9" stroke-linecap="round"/><line x1="344" y1="167.71281292110203" x2="312.5" y2="222.2724133595217" stroke="#7a2bbf" stroke-width="9" stroke-linecap="round"/><line x1="332.28718707889794" y1="156" x2="277.7275866404783" y2="187.5" stroke="#7a2bbf" stroke-width="9" stroke-linecap="round"/><line x1="328" y1="140" x2="265" y2="140" stroke="#7a2bbf" stroke-width="9" stroke-linecap="round"/><line x1="332.28718707889794" y1="124" x2="277.7275866404783" y2="92.5" stroke="#7a2bbf" stroke-width="9" stroke-linecap="round"/><line x1="344" y1="112.28718707889797" x2="312.49999999999994" y2="57.72758664047835" stroke="#7a2bbf" stroke-width="9" stroke-linecap="round"/><line x1="360" y1="108" x2="360" y2="45" stroke="#7a2bbf" stroke-width="9" stroke-linecap="round"/><line x1="376" y1="112.28718707889797" x2="407.5" y2="57.727586640478336" stroke="#7a2bbf" stroke-width="9" stroke-linecap="round"/><line x1="387.712812921102" y1="123.99999999999999" x2="442.27241335952164" y2="92.49999999999996" stroke="#7a2bbf" stroke-width="9" stroke-linecap="round"/><text x="360" y="255" font-family='Heebo, Arial, sans-serif' font-size="15" fill="#555" text-anchor="middle" font-weight="400">הגזים החמים מסובבים את הטורבינה ~10,000+ RPM</text></svg>